<svg width="297" height="296" viewBox="0 0 297 296" fill="none" xmlns="http://www.w3.org/2000/svg">
<path d="M252.949 162.695L243.571 161.088C243.571 161.088 244.702 149.165 239.821 149.165C237.409 149.165 235.587 149.165 234.864 152.782C231.783 168.187 254.556 176.343 254.556 200.605C254.556 217.754 247.579 225.449 237.781 222.291C217.42 215.727 223.85 190.677 223.85 190.677L233.629 192.82C233.629 192.82 232.025 208.422 238.615 209.447C244.241 210.322 243.571 201.588 243.571 198.864C243.571 180.63 219.762 171.938 224.415 149.835C226.023 142.199 230.012 137.897 239.821 139.118C255.115 141.023 252.949 162.695 252.949 162.695Z" fill="#FF2459"/>
<path d="M39.2516 153.575V142.457C45.1458 140.447 56.9342 138.572 69.5263 137.862V148.887L59.6134 150.226V219.885C53.4512 221.492 50.7721 222.564 49.0306 223.502V152.37L39.2516 153.575Z" fill="#FF2459"/>
<path d="M73.0099 216.667L73.5457 137.306C77.6262 136.992 79.172 136.904 83.9945 136.636V214.792C79.0788 215.431 76.4928 215.997 73.0099 216.667Z" fill="#FF2459"/>
<path d="M191.029 145.399V135.829C203.27 136.305 210.072 136.49 220.902 137.227V148.078L211.123 147.408V214.388C207.159 213.875 204.896 213.602 200.674 213.182V146.336L191.029 145.399Z" fill="#FF2459"/>
<path d="M105.026 135.354C118.177 135.276 118.951 143.231 119.092 158.127H109.179C109.179 158.127 109.982 144.597 105.026 144.597C100.07 144.597 100.07 149.018 100.07 149.018L100.07 196.171C100.07 199.52 101.409 200.324 104.758 200.592C110.767 201.073 109.447 180.364 109.447 180.364H119.092C119.092 180.364 124.986 210.902 105.026 212.381C93.9074 213.204 89.6207 207.29 89.6207 202.735C89.6208 184.919 90.0226 150.357 90.0226 150.357C90.0226 139.775 96.3187 135.756 105.026 135.354Z" fill="#FF2459"/>
<path d="M135.303 135.219C130.895 134.931 128.508 135.085 124.318 135.487V210.906C128.739 210.504 130.848 210.526 135.035 210.504V182.507L137.313 178.086L147.092 210.37C151.512 210.37 153.656 210.236 157.674 210.504L144.144 165.628L157.272 134.684H146.958L135.303 162.145V135.219Z" fill="#FF2459"/>
<path d="M188.752 135.887C179.604 135.197 173.531 134.825 161.424 135.218L161.692 210.637C171.576 210.874 177.198 211.123 188.216 211.976V198.312L171.739 197.643V175.807H184.867V164.555L171.739 164.287V145.265H188.216L188.752 135.887Z" fill="#FF2459"/>
<path d="M182.32 74V127.946C185.947 128.021 187.426 127.954 191.189 128.078V94.2627L198.178 128.209C201.945 128.308 204.088 128.379 208.122 128.604L214.304 93.2101V128.799C218.591 129.083 220.485 129.12 224.115 129.281V74H210.004L203.15 111.762L195.624 74H182.32Z" fill="#FF2459"/>
<path d="M136.503 127.598V74H162.759V82.8337H146.366V97.205H159.427V105.116H146.366V118.96H162.493V127.585C152.479 127.579 146.806 127.386 136.503 127.598Z" fill="#FF2459"/>
<path d="M32.2856 82.3078V74H63.0962V82.3078H52.6474L52.7814 131.364L52.5863 131.386C47.7833 131.93 46.8252 132.039 42.1986 133.21V82.3078H32.2856Z" fill="#FF2459"/>
<path d="M99.5339 128.428V74.1318H109.573V96.2722L123.359 74.1318H132.728L118.54 99.6986L131.658 127.769C127.979 127.735 126.625 127.768 121.53 127.894L121.217 127.901L112.116 107.869L109.84 110.637V128.297C105.784 128.287 103.525 128.308 99.5339 128.428Z" fill="#FF2459"/>
<path d="M238.737 109.846L227.092 74H236.729L245.162 99.3033L252.523 74H262.428L249.98 111.428V131.526C245.856 130.936 242.525 130.672 238.804 130.377L238.737 130.372V109.846Z" fill="#FF2459"/>
<path fill-rule="evenodd" clip-rule="evenodd" d="M70.9606 74L61.4874 130.404C63.9292 130.167 65.8568 129.981 70.2935 129.745L72.1615 120.256H82.702L84.8369 128.954C88.0258 128.729 89.5622 128.662 93.0139 128.513C93.606 128.487 94.2544 128.459 94.9772 128.427L85.3706 74H70.9606ZM77.6323 86.9098H76.9732L73.5455 112.726H81.851L77.6323 86.9098Z" fill="#FF2459"/>
</svg>
